<svg xmlns="http://www.w3.org/2000/svg" version="1.1" xmlns:xlink="http://www.w3.org/1999/xlink" xmlns:svgjs="http://svgjs.dev/svgjs" width="1920" height="1080" preserveAspectRatio="none" viewBox="0 0 1920 1080"><g mask="url(&quot;#SvgjsMask1028&quot;)" fill="none"><path d="M930.38-25.58C772.41 117.14 858.98 760.08 607.93 762.59 356.87 765.1 167.57 274.97-36.98 244.19" stroke="rgba(205, 211, 216, 0.58)" stroke-width="2"></path><path d="M1339.59-195.81C1062.35-71.1 1015.3 801.65 653.03 807.85 290.77 814.05 182.63 298.89-33.52 267.85" stroke="rgba(205, 211, 216, 0.58)" stroke-width="2"></path><path d="M1574.33-77.38C1351.19-77.23 1154.86 12.15 687.1 19.97 219.34 27.79 53.54 500.24-200.13 516.77" stroke="rgba(205, 211, 216, 0.58)" stroke-width="2"></path><path d="M1116.64-177.38C932.27-164.64 845.31 163.91 475.35 190.36 105.4 216.81 19.66 554.64-165.93 568.36" stroke="rgba(205, 211, 216, 0.58)" stroke-width="2"></path><path d="M1328.47-98.04C1142.29-19.75 1222.08 556.64 858.9 559.36 495.73 562.08 166.4 260.66-80.23 256.96" stroke="rgba(205, 211, 216, 0.58)" stroke-width="2"></path></g><defs><mask id="SvgjsMask1028"><rect width="1920" height="1080" fill="#ffffff"></rect></mask></defs></svg>