<svg id="visual" viewBox="0 0 900 600" width="900" height="600" xmlns="http://www.w3.org/2000/svg" xmlns:xlink="http://www.w3.org/1999/xlink" version="1.1"><rect x="0" y="0" width="900" height="600" fill="#001220"></rect><path d="M0 419L21.5 414.7C43 410.3 86 401.7 128.8 396.7C171.7 391.7 214.3 390.3 257.2 394.3C300 398.3 343 407.7 385.8 404.5C428.7 401.3 471.3 385.7 514.2 386.3C557 387 600 404 642.8 408.5C685.7 413 728.3 405 771.2 401.8C814 398.7 857 400.3 878.5 401.2L900 402L900 601L878.5 601C857 601 814 601 771.2 601C728.3 601 685.7 601 642.8 601C600 601 557 601 514.2 601C471.3 601 428.7 601 385.8 601C343 601 300 601 257.2 601C214.3 601 171.7 601 128.8 601C86 601 43 601 21.5 601L0 601Z" fill="#fa7268"></path><path d="M0 396L21.5 403.3C43 410.7 86 425.3 128.8 431.7C171.7 438 214.3 436 257.2 439.7C300 443.3 343 452.7 385.8 454.7C428.7 456.7 471.3 451.3 514.2 452C557 452.7 600 459.3 642.8 461C685.7 462.7 728.3 459.3 771.2 457.5C814 455.7 857 455.3 878.5 455.2L900 455L900 601L878.5 601C857 601 814 601 771.2 601C728.3 601 685.7 601 642.8 601C600 601 557 601 514.2 601C471.3 601 428.7 601 385.8 601C343 601 300 601 257.2 601C214.3 601 171.7 601 128.8 601C86 601 43 601 21.5 601L0 601Z" fill="#ef5f67"></path><path d="M0 489L21.5 489.2C43 489.3 86 489.7 128.8 482.5C171.7 475.3 214.3 460.7 257.2 456.3C300 452 343 458 385.8 464.7C428.7 471.3 471.3 478.7 514.2 474.2C557 469.7 600 453.3 642.8 450.2C685.7 447 728.3 457 771.2 466.2C814 475.3 857 483.7 878.5 487.8L900 492L900 601L878.5 601C857 601 814 601 771.2 601C728.3 601 685.7 601 642.8 601C600 601 557 601 514.2 601C471.3 601 428.7 601 385.8 601C343 601 300 601 257.2 601C214.3 601 171.7 601 128.8 601C86 601 43 601 21.5 601L0 601Z" fill="#e34c67"></path><path d="M0 532L21.5 528.7C43 525.3 86 518.7 128.8 511C171.7 503.3 214.3 494.7 257.2 493.7C300 492.7 343 499.3 385.8 499C428.7 498.7 471.3 491.3 514.2 488C557 484.7 600 485.3 642.8 487.3C685.7 489.3 728.3 492.7 771.2 493C814 493.3 857 490.7 878.5 489.3L900 488L900 601L878.5 601C857 601 814 601 771.2 601C728.3 601 685.7 601 642.8 601C600 601 557 601 514.2 601C471.3 601 428.7 601 385.8 601C343 601 300 601 257.2 601C214.3 601 171.7 601 128.8 601C86 601 43 601 21.5 601L0 601Z" fill="#d53867"></path><path d="M0 556L21.5 551.7C43 547.3 86 538.7 128.8 541.5C171.7 544.3 214.3 558.7 257.2 565.7C300 572.7 343 572.3 385.8 566.7C428.7 561 471.3 550 514.2 548.2C557 546.3 600 553.7 642.8 557.3C685.7 561 728.3 561 771.2 563C814 565 857 569 878.5 571L900 573L900 601L878.5 601C857 601 814 601 771.2 601C728.3 601 685.7 601 642.8 601C600 601 557 601 514.2 601C471.3 601 428.7 601 385.8 601C343 601 300 601 257.2 601C214.3 601 171.7 601 128.8 601C86 601 43 601 21.5 601L0 601Z" fill="#c62368"></path></svg>